<?xml version="1.0" standalone="no"?>
<!DOCTYPE svg PUBLIC "-//W3C//DTD SVG 20010904//EN"
 "http://www.w3.org/TR/2001/REC-SVG-20010904/DTD/svg10.dtd">
<svg version="1.0" xmlns="http://www.w3.org/2000/svg"
 width="800.000000pt" height="800.000000pt" viewBox="0 0 800.000000 800.000000"
 preserveAspectRatio="xMidYMid meet">

<g transform="translate(0.000000,800.000000) scale(0.100000,-0.100000)"
fill="#000000" stroke="none">
<path d="M160 7861 c-68 -21 -114 -59 -144 -118 -14 -29 -16 -157 -16 -1368 0
-1295 1 -1337 19 -1373 11 -20 32 -49 48 -64 62 -59 48 -58 697 -58 l595 0 3
-832 c3 -832 3 -833 25 -873 63 -118 188 -158 304 -97 39 20 62 41 84 77 l30
48 3 838 2 839 613 2 613 3 42 27 c22 15 54 49 69 75 l28 48 3 1319 c3 1471 7
1378 -67 1450 -72 70 19 66 -1530 65 -768 0 -1407 -4 -1421 -8z m2570 -1491
l0 -1050 -1145 0 -1145 0 0 1050 0 1050 1145 0 1145 0 0 -1050z"/>
<path d="M1135 7110 c-11 -4 -31 -20 -45 -35 l-25 -27 -3 -668 -2 -668 26 -31
c69 -82 274 -78 331 8 22 33 23 42 23 241 l0 208 158 4 c173 6 232 20 324 79
129 83 188 212 188 414 0 170 -35 271 -122 358 -59 59 -113 88 -203 112 -47
12 -118 15 -345 14 -157 0 -294 -4 -305 -9z m536 -346 c40 -20 59 -68 59 -149
0 -135 -34 -165 -190 -165 l-100 0 0 165 0 165 100 0 c72 0 110 -4 131 -16z"/>
<path d="M3601 4639 c-265 -44 -517 -221 -657 -459 -22 -37 -130 -309 -254
-639 l-215 -574 -90 -22 c-261 -66 -492 -239 -638 -480 -79 -130 -100 -204
-222 -780 -63 -300 -115 -548 -115 -551 0 -2 -16 -4 -36 -4 -140 0 -237 -93
-238 -227 0 -79 37 -144 108 -188 l49 -30 214 -3 213 -4 30 -64 c86 -180 260
-341 451 -419 158 -64 384 -79 543 -36 261 70 476 256 582 503 l20 49 893 -1
c851 0 894 0 934 18 114 51 166 178 118 288 -28 61 -55 92 -106 115 -38 18
-86 19 -921 19 l-882 0 -16 68 c-9 37 -37 108 -61 159 -85 175 -224 313 -399
398 -144 69 -195 80 -386 80 -160 0 -168 -1 -260 -33 -101 -35 -182 -76 -242
-124 -21 -16 -38 -27 -38 -24 0 23 85 404 101 453 68 206 262 365 490 402 42
7 454 11 1177 11 l1112 0 0 -347 c1 -192 5 -368 9 -392 35 -180 271 -238 389
-96 49 61 52 84 52 474 l0 361 278 0 c306 0 453 -10 615 -40 515 -98 912 -412
1051 -832 48 -146 48 -146 -46 -55 -100 98 -208 164 -338 208 -83 28 -112 33
-232 37 -117 4 -152 1 -232 -17 -302 -70 -542 -296 -638 -601 -20 -67 -23 -94
-23 -245 1 -159 2 -175 29 -255 96 -292 318 -502 611 -581 114 -31 316 -31
430 0 156 42 288 117 398 228 76 77 112 127 162 225 l34 66 213 4 c206 3 215
4 263 29 30 15 62 42 80 68 25 36 30 54 33 115 3 55 0 82 -13 107 -35 70 -95
112 -174 125 l-41 7 0 62 c0 110 -20 317 -41 420 -69 341 -251 658 -507 881
-72 64 -265 202 -299 215 -5 2 -72 274 -148 604 -142 620 -170 725 -213 810
-129 256 -379 449 -657 506 -85 18 -153 19 -1170 18 -594 -1 -1104 -5 -1134
-10z"/>
</g>
</svg>
